<svg width="346" height="39" viewBox="0 0 346 39" fill="none" xmlns="http://www.w3.org/2000/svg">
<path d="M28.876 31.384C26.5933 31.384 24.524 30.8933 22.668 29.912C20.8333 28.9093 19.3827 27.5333 18.316 25.784C17.2707 24.0133 16.748 22.0187 16.748 19.8C16.748 17.5813 17.2707 15.5973 18.316 13.848C19.3827 12.0773 20.8333 10.7013 22.668 9.72C24.524 8.71733 26.604 8.216 28.908 8.216C30.8493 8.216 32.5987 8.55733 34.156 9.24C35.7347 9.92267 37.0573 10.904 38.124 12.184L34.796 15.256C33.2813 13.5067 31.404 12.632 29.164 12.632C27.7773 12.632 26.54 12.9413 25.452 13.56C24.364 14.1573 23.5107 15 22.892 16.088C22.2947 17.176 21.996 18.4133 21.996 19.8C21.996 21.1867 22.2947 22.424 22.892 23.512C23.5107 24.6 24.364 25.4533 25.452 26.072C26.54 26.6693 27.7773 26.968 29.164 26.968C31.404 26.968 33.2813 26.0827 34.796 24.312L38.124 27.384C37.0573 28.6853 35.7347 29.6773 34.156 30.36C32.5773 31.0427 30.8173 31.384 28.876 31.384ZM55.8968 31L51.5768 24.76H51.3208H46.8088V31H41.6248V8.6H51.3208C53.3048 8.6 55.0221 8.93067 56.4728 9.592C57.9448 10.2533 59.0754 11.192 59.8648 12.408C60.6541 13.624 61.0488 15.064 61.0488 16.728C61.0488 18.392 60.6434 19.832 59.8328 21.048C59.0434 22.2427 57.9128 23.16 56.4408 23.8L61.4648 31H55.8968ZM55.8008 16.728C55.8008 15.4693 55.3954 14.5093 54.5848 13.848C53.7741 13.1653 52.5901 12.824 51.0328 12.824H46.8088V20.632H51.0328C52.5901 20.632 53.7741 20.2907 54.5848 19.608C55.3954 18.9253 55.8008 17.9653 55.8008 16.728ZM75.108 31.384C71.908 31.384 69.412 30.4987 67.62 28.728C65.8493 26.9573 64.964 24.4293 64.964 21.144V8.6H70.148V20.952C70.148 24.9627 71.812 26.968 75.14 26.968C76.7613 26.968 77.9987 26.488 78.852 25.528C79.7053 24.5467 80.132 23.0213 80.132 20.952V8.6H85.252V21.144C85.252 24.4293 84.356 26.9573 82.564 28.728C80.7933 30.4987 78.308 31.384 75.108 31.384ZM90.3748 8.6H100.551C102.983 8.6 105.127 9.06933 106.983 10.008C108.86 10.9253 110.311 12.2267 111.335 13.912C112.38 15.5973 112.903 17.56 112.903 19.8C112.903 22.04 112.38 24.0027 111.335 25.688C110.311 27.3733 108.86 28.6853 106.983 29.624C105.127 30.5413 102.983 31 100.551 31H90.3748V8.6ZM100.295 26.744C102.535 26.744 104.316 26.1253 105.639 24.888C106.983 23.6293 107.655 21.9333 107.655 19.8C107.655 17.6667 106.983 15.9813 105.639 14.744C104.316 13.4853 102.535 12.856 100.295 12.856H95.5588V26.744H100.295ZM136.723 31.384C134.397 31.384 132.296 30.8827 130.419 29.88C128.563 28.8773 127.101 27.5013 126.035 25.752C124.989 23.9813 124.467 21.9973 124.467 19.8C124.467 17.6027 124.989 15.6293 126.035 13.88C127.101 12.1093 128.563 10.7227 130.419 9.72C132.296 8.71733 134.397 8.216 136.723 8.216C139.048 8.216 141.139 8.71733 142.995 9.72C144.851 10.7227 146.312 12.1093 147.379 13.88C148.445 15.6293 148.979 17.6027 148.979 19.8C148.979 21.9973 148.445 23.9813 147.379 25.752C146.312 27.5013 144.851 28.8773 142.995 29.88C141.139 30.8827 139.048 31.384 136.723 31.384ZM136.723 26.968C138.045 26.968 139.24 26.6693 140.307 26.072C141.373 25.4533 142.205 24.6 142.803 23.512C143.421 22.424 143.731 21.1867 143.731 19.8C143.731 18.4133 143.421 17.176 142.803 16.088C142.205 15 141.373 14.1573 140.307 13.56C139.24 12.9413 138.045 12.632 136.723 12.632C135.4 12.632 134.205 12.9413 133.139 13.56C132.072 14.1573 131.229 15 130.611 16.088C130.013 17.176 129.715 18.4133 129.715 19.8C129.715 21.1867 130.013 22.424 130.611 23.512C131.229 24.6 132.072 25.4533 133.139 26.072C134.205 26.6693 135.4 26.968 136.723 26.968ZM162.571 8.6C164.555 8.6 166.272 8.93067 167.723 9.592C169.195 10.2533 170.325 11.192 171.115 12.408C171.904 13.624 172.299 15.064 172.299 16.728C172.299 18.3707 171.904 19.8107 171.115 21.048C170.325 22.264 169.195 23.2027 167.723 23.864C166.272 24.504 164.555 24.824 162.571 24.824H158.059V31H152.875V8.6H162.571ZM162.283 20.6C163.84 20.6 165.024 20.2693 165.835 19.608C166.645 18.9253 167.051 17.9653 167.051 16.728C167.051 15.4693 166.645 14.5093 165.835 13.848C165.024 13.1653 163.84 12.824 162.283 12.824H158.059V20.6H162.283ZM193.344 26.84V31H176V8.6H192.928V12.76H181.152V17.624H191.552V21.656H181.152V26.84H193.344ZM211.741 31L207.421 24.76H207.165H202.653V31H197.469V8.6H207.165C209.149 8.6 210.866 8.93067 212.317 9.592C213.789 10.2533 214.919 11.192 215.709 12.408C216.498 13.624 216.893 15.064 216.893 16.728C216.893 18.392 216.487 19.832 215.677 21.048C214.887 22.2427 213.757 23.16 212.285 23.8L217.309 31H211.741ZM211.645 16.728C211.645 15.4693 211.239 14.5093 210.429 13.848C209.618 13.1653 208.434 12.824 206.877 12.824H202.653V20.632H206.877C208.434 20.632 209.618 20.2907 210.429 19.608C211.239 18.9253 211.645 17.9653 211.645 16.728ZM235.752 26.2H225.352L223.368 31H218.056L228.04 8.6H233.16L243.176 31H237.736L235.752 26.2ZM234.12 22.264L230.568 13.688L227.016 22.264H234.12ZM249.015 12.824H241.847V8.6H261.367V12.824H254.199V31H249.015V12.824ZM264.156 8.6H269.34V31H264.156V8.6ZM285.504 31.384C283.179 31.384 281.077 30.8827 279.2 29.88C277.344 28.8773 275.883 27.5013 274.816 25.752C273.771 23.9813 273.248 21.9973 273.248 19.8C273.248 17.6027 273.771 15.6293 274.816 13.88C275.883 12.1093 277.344 10.7227 279.2 9.72C281.077 8.71733 283.179 8.216 285.504 8.216C287.829 8.216 289.92 8.71733 291.776 9.72C293.632 10.7227 295.093 12.1093 296.16 13.88C297.227 15.6293 297.76 17.6027 297.76 19.8C297.76 21.9973 297.227 23.9813 296.16 25.752C295.093 27.5013 293.632 28.8773 291.776 29.88C289.92 30.8827 287.829 31.384 285.504 31.384ZM285.504 26.968C286.827 26.968 288.021 26.6693 289.088 26.072C290.155 25.4533 290.987 24.6 291.584 23.512C292.203 22.424 292.512 21.1867 292.512 19.8C292.512 18.4133 292.203 17.176 291.584 16.088C290.987 15 290.155 14.1573 289.088 13.56C288.021 12.9413 286.827 12.632 285.504 12.632C284.181 12.632 282.987 12.9413 281.92 13.56C280.853 14.1573 280.011 15 279.392 16.088C278.795 17.176 278.496 18.4133 278.496 19.8C278.496 21.1867 278.795 22.424 279.392 23.512C280.011 24.6 280.853 25.4533 281.92 26.072C282.987 26.6693 284.181 26.968 285.504 26.968ZM322.2 8.6V31H317.944L306.776 17.4V31H301.656V8.6H305.944L317.08 22.2V8.6H322.2ZM334.86 31.384C333.089 31.384 331.372 31.1493 329.708 30.68C328.065 30.1893 326.742 29.56 325.74 28.792L327.5 24.888C328.46 25.592 329.601 26.1573 330.924 26.584C332.246 27.0107 333.569 27.224 334.892 27.224C336.364 27.224 337.452 27.0107 338.156 26.584C338.86 26.136 339.212 25.5493 339.212 24.824C339.212 24.2907 338.998 23.8533 338.572 23.512C338.166 23.1493 337.633 22.8613 336.972 22.648C336.332 22.4347 335.457 22.2 334.348 21.944C332.641 21.5387 331.244 21.1333 330.156 20.728C329.068 20.3227 328.129 19.672 327.34 18.776C326.572 17.88 326.188 16.6853 326.188 15.192C326.188 13.8907 326.54 12.7173 327.244 11.672C327.948 10.6053 329.004 9.76267 330.412 9.144C331.841 8.52533 333.58 8.216 335.628 8.216C337.057 8.216 338.454 8.38667 339.82 8.728C341.185 9.06933 342.38 9.56 343.404 10.2L341.804 14.136C339.734 12.9627 337.665 12.376 335.596 12.376C334.145 12.376 333.068 12.6107 332.364 13.08C331.681 13.5493 331.34 14.168 331.34 14.936C331.34 15.704 331.734 16.28 332.524 16.664C333.334 17.0267 334.561 17.3893 336.204 17.752C337.91 18.1573 339.308 18.5627 340.396 18.968C341.484 19.3733 342.412 20.0133 343.18 20.888C343.969 21.7627 344.364 22.9467 344.364 24.44C344.364 25.72 344.001 26.8933 343.276 27.96C342.572 29.0053 341.505 29.8373 340.076 30.456C338.646 31.0747 336.908 31.384 334.86 31.384Z" fill="black"/>
<path d="M3 0L3 39" stroke="#F8D442" stroke-width="6"/>
</svg>
